<svg width="338" height="347" viewBox="0 0 338 347" fill="none" xmlns="http://www.w3.org/2000/svg">
<path d="M18.1564 154.869C10.2747 153.217 2.43935 158.162 1.3648 166.143C-1.37214 186.471 0.00987766 207.156 5.48816 227.07C11.0539 247.302 20.7168 266.264 33.8893 282.913C38.6792 288.967 47.5063 289.427 53.3965 284.436V284.436C59.7297 279.071 60.204 269.532 55.2477 262.874C45.6003 249.914 38.4616 235.377 34.2157 219.942C29.984 204.56 28.7174 188.619 30.4312 172.886C31.3305 164.63 26.2841 156.574 18.1564 154.869V154.869Z" fill="#9768B2"/>
<path d="M319.925 155.235C327.812 153.601 335.637 158.569 336.69 166.554C340.191 193.1 336.658 220.138 326.3 245.18C314.079 274.727 292.908 300.168 265.462 318.287C238.017 336.406 205.531 346.388 172.111 346.973C143.767 347.468 115.831 341.185 90.8385 328.803C83.5231 325.179 81.5352 315.912 86.1067 309.148V309.148C90.3847 302.819 98.854 301.04 105.73 304.37C126.035 314.2 148.637 319.18 171.565 318.779C199.113 318.297 225.891 310.069 248.515 295.133C271.138 280.197 288.59 259.226 298.664 234.871C306.791 215.221 309.821 194.081 307.605 173.22C306.728 164.963 311.794 156.92 319.925 155.235V155.235Z" fill="#9768B2"/>
<path d="M81 298C81 305.18 74.9558 311 67.5 311C60.0442 311 54 305.18 54 298C54 290.82 60.0442 285 67.5 285C74.9558 285 81 290.82 81 298Z" fill="#9768B2"/>
<path d="M266 155.873L171 252.373" stroke="#9768B2" stroke-width="30" stroke-linecap="round"/>
<path d="M72 155.873L167 252.373" stroke="#9768B2" stroke-width="30" stroke-linecap="round"/>
<path d="M169 15L169 253" stroke="#9768B2" stroke-width="30" stroke-linecap="round"/>
</svg>
