<svg width="360" height="370" viewBox="0 0 360 370" fill="none" xmlns="http://www.w3.org/2000/svg">
<path d="M29.1554 164.869C21.2737 163.217 13.4384 168.162 12.3638 176.143C9.62686 196.471 11.0089 217.156 16.4871 237.07C22.0529 257.302 31.7158 276.264 44.8883 292.913C49.6782 298.967 58.5053 299.426 64.3955 294.436C70.7286 289.071 71.203 279.532 66.2467 272.874C56.5993 259.914 49.4606 245.377 45.2147 229.942C40.983 214.56 39.7164 198.619 41.4302 182.886C42.3295 174.63 37.2831 166.574 29.1554 164.869Z" fill="#9768B2"/>
<path d="M330.924 165.235C338.812 163.601 346.637 168.569 347.69 176.554C351.191 203.1 347.657 230.138 337.3 255.18C325.079 284.727 303.908 310.168 276.462 328.287C249.017 346.406 216.53 356.388 183.111 356.973C154.767 357.468 126.831 351.185 101.838 338.803C94.5229 335.179 92.535 325.912 97.1065 319.148C101.385 312.819 109.854 311.04 116.73 314.37C137.035 324.2 159.637 329.18 182.564 328.779C210.112 328.297 236.891 320.069 259.515 305.133C282.138 290.197 299.59 269.226 309.664 244.871C317.791 225.221 320.821 204.081 318.605 183.22C317.727 174.963 322.793 166.92 330.924 165.235Z" fill="#9768B2"/>
<path d="M92 308C92 315.18 85.9558 321 78.5 321C71.0442 321 65 315.18 65 308C65 300.82 71.0442 295 78.5 295C85.9558 295 92 300.82 92 308Z" fill="#9768B2"/>
<path d="M289.601 155.398C295.654 161.451 295.654 171.265 289.601 177.318L190.959 275.96C184.906 282.013 175.092 282.013 169.039 275.96L70.3978 177.318C64.3448 171.265 64.3447 161.451 70.3978 155.398C76.4508 149.345 86.2645 149.346 92.3177 155.398L164.499 227.58V26C164.499 17.4396 171.439 10.5 179.999 10.5C188.56 10.5 195.499 17.4396 195.499 26V227.58L267.681 155.398C273.734 149.346 283.548 149.345 289.601 155.398Z" fill="#9768B2"/>
</svg>
